<svg width="57" height="57" viewBox="0 0 57 57" fill="none" xmlns="http://www.w3.org/2000/svg">
<g clip-path="url(#clip0_25_452)">
<path fill-rule="evenodd" clip-rule="evenodd" d="M41.5206 18.274C41.3065 17.8327 41.0569 17.4994 40.7731 17.2661C40.2491 16.8305 39.5583 16.788 38.9882 17.15C36.975 18.4211 34.6283 19.3405 31.9409 19.9014C31.929 20.0094 31.9101 20.1163 31.8876 20.2232C31.7327 21.0047 31.4299 21.7712 30.9828 22.5252C30.8562 22.7366 30.5912 22.801 30.3866 22.6688C30.1844 22.5378 30.124 22.262 30.2506 22.0505C30.6386 21.4 30.9 20.7415 31.036 20.0772C30.5061 20.1714 29.9608 20.2507 29.4049 20.3186C29.393 20.3956 29.38 20.4691 29.3646 20.545C29.2097 21.3276 28.9104 22.093 28.4586 22.8469C28.3332 23.0584 28.0683 23.1228 27.866 22.9906C27.6637 22.8596 27.601 22.5838 27.7276 22.3723C28.112 21.7253 28.3734 21.0725 28.5095 20.4139C27.9831 20.4634 27.4461 20.499 26.9008 20.5277C26.8854 20.6404 26.8665 20.7541 26.8405 20.8679C26.6891 21.6494 26.3863 22.4148 25.9356 23.1687C25.8091 23.3802 25.5441 23.4446 25.343 23.3136C25.1408 23.1814 25.0781 22.9021 25.2034 22.6941C25.5985 22.0321 25.8635 21.3644 25.9959 20.6863C26.0054 20.6438 26.0137 20.6013 26.0208 20.5611C25.2259 20.5829 24.4086 20.5794 23.57 20.5553C23.3298 20.5484 23.1217 20.6404 22.9608 20.8242C22.7964 21.0058 22.7242 21.2322 22.7491 21.4805C22.8508 22.4734 22.8319 23.3561 22.6935 24.1318C22.5291 25.0478 21.9613 25.75 21.1286 26.0741C20.2923 26.4028 19.4253 26.2614 18.7251 25.6856C18.5323 25.5259 18.3407 25.3639 18.1479 25.1915C17.9716 25.0329 17.7374 24.9984 17.5233 25.0961C17.3116 25.1949 17.1791 25.3972 17.1697 25.6385C17.0845 28.1336 17.6522 30.077 18.8788 31.4711C32.1904 27.6808 39.7381 23.2825 41.5206 18.274ZM22.2452 36.66H45.1543C45.6215 36.66 46 37.0554 46 37.5427V37.7174C46 38.2047 45.6215 38.6 45.1543 38.6H22.2452C21.778 38.6 21.3995 38.2047 21.3995 37.7174V37.5427C21.3995 37.0554 21.778 36.66 22.2452 36.66ZM40.2467 29.2461L44.6397 35.7096H41.6318L38.2655 30.693L34.9192 33.1387L34.1646 32.0135C33.7482 31.3952 33.8937 30.5333 34.4863 30.0988L41.0037 25.3386C41.5963 24.9064 42.4196 25.057 42.8359 25.6765L43.5906 26.8004L40.2467 29.2461ZM11 19.5554L18.5701 13L22.1565 17.3488C22.5196 17.7867 22.535 18.3843 22.1092 18.7521L15.9774 24.064C15.6119 24.3789 15.0027 24.3858 14.6904 24.0089L11 19.5554ZM22.0406 19.6968L22.6994 20.3002C22.6485 20.3404 22.6048 20.3864 22.561 20.4346C22.2889 20.7415 22.1659 21.1276 22.2073 21.5379C22.2889 22.3597 22.302 23.2147 22.1565 24.0273C22.0275 24.7444 21.5923 25.2869 20.9358 25.5408C20.2793 25.7983 19.611 25.6914 19.0622 25.2374C18.8729 25.0811 18.6837 24.9191 18.5003 24.7559C18.1632 24.4594 17.709 24.3881 17.3057 24.5755C17.1791 24.6306 17.0691 24.7076 16.9745 24.8019L16.596 24.4134L22.0406 19.6968ZM19.2171 32.048C32.7203 28.2382 40.061 23.8985 41.8577 18.8509C41.8577 18.8509 42.0446 19.1291 42.4231 19.6842C41.685 25.0444 35.2055 30.0058 21.2291 35.3395C21.0375 35.4131 20.8447 35.3935 20.6685 35.2867C20.491 35.1798 20.4307 34.9959 20.3491 34.8028C19.5389 32.8962 19.2171 32.048 19.2171 32.048Z" fill="#767676"/>
</g>
<defs>
<clipPath id="clip0_25_452">
<rect width="35" height="32" fill="white" transform="translate(11 13)"/>
</clipPath>
</defs>
</svg>
