<svg width="57" height="57" viewBox="0 0 57 57" fill="none" xmlns="http://www.w3.org/2000/svg">
<path d="M32 43.2601H24C22.0925 43.2601 20.5 41.6307 20.5 39.6232V23.0754C20.5 21.0526 22.0912 19.4385 24 19.4385H32C33.9088 19.4385 35.5 21.0526 35.5 23.0754V39.6232C35.5 41.6307 33.9075 43.2601 32 43.2601ZM24 21.748C23.2793 21.748 22.7 22.3569 22.7 23.0754V39.6232C22.7 40.3301 23.2761 40.9506 24 40.9506H32C32.7239 40.9506 33.3 40.3301 33.3 39.6232V23.0754C33.3 22.3569 32.7207 21.748 32 21.748H24Z" fill="#767676" stroke="#767676"/>
<path d="M30.3999 23.989C30.772 23.989 31.0999 24.3035 31.0999 24.7301V26.1745H24.8999V24.7301C24.8999 24.3035 25.2278 23.989 25.5999 23.989H30.3999Z" fill="#767676" stroke="#767676"/>
<path d="M24.8999 28.4155H31.0999V30.2286H24.8999V28.4155Z" fill="#767676" stroke="#767676"/>
<path d="M24.8999 32.4697H31.0999V34.2828H24.8999V32.4697Z" fill="#767676" stroke="#767676"/>
<path d="M30.3999 38.7094H25.5999C25.2278 38.7094 24.8999 38.3949 24.8999 37.9683V36.5239H31.0999V37.9683C31.0999 38.3949 30.772 38.7094 30.3999 38.7094Z" fill="#767676" stroke="#767676"/>
<path d="M26.0001 15.5H30.0001C30.8689 15.5 31.6248 16.1199 31.8393 16.9822H24.1603C24.3733 16.1193 25.1253 15.5 26.0001 15.5Z" fill="#767676" stroke="#767676"/>
</svg>
