<svg width="57" height="57" viewBox="0 0 57 57" fill="none" xmlns="http://www.w3.org/2000/svg">
<path fill-rule="evenodd" clip-rule="evenodd" d="M14.7607 30.6559C15.0059 33.4227 16.4766 36.3351 18.3396 38.2281C21.7713 41.7715 26.2326 43.0335 31.0371 42.0142C36.0377 40.9949 39.8126 37.3544 41.0383 32.4519C42.9012 24.5884 37.7045 16.8706 29.6644 16.0454C29.6644 17.0162 29.7134 18.3268 29.5173 18.8607C29.1742 19.9771 28.1446 19.8801 27.2131 19.9771C22.8989 20.2684 19.0259 24.0545 18.7808 28.326C18.7318 29.1997 18.7808 30.1705 17.7513 30.5588C17.114 30.8015 15.7903 30.7044 14.7607 30.6559ZM27.2131 22.9866C25.5953 23.2293 24.1736 23.9574 23.2421 25.2194C21.6243 27.3552 21.2811 29.9763 22.6048 32.3062C23.3892 33.5683 24.6638 34.5876 26.1346 35.073C26.968 35.3643 27.9485 35.4613 28.929 35.3157C30.6449 35.073 31.9196 34.3449 32.9491 33.1314C33.8806 32.0635 34.5179 30.1705 34.3218 28.326C34.1747 27.4037 33.9296 26.7242 33.5374 25.9961C32.4098 23.9089 29.6644 22.5983 27.2131 22.9866ZM26.1836 29.1997C26.7719 29.3939 27.8505 30.4617 28.0466 31.0442C28.1936 30.9471 28.929 29.6366 30.0076 29.1997C29.9586 29.1512 30.0076 29.1512 29.9586 29.1026L29.7134 28.957C28.6349 28.326 28.2427 27.4037 28.0466 27.2581C27.8505 27.695 27.5563 28.0347 27.2622 28.326C27.1151 28.4716 26.968 28.6172 26.7719 28.7628C26.6739 28.8599 26.5758 28.9085 26.4778 28.957C26.4287 29.0055 26.3797 29.0055 26.3307 29.0541C26.2817 29.1026 26.2817 29.0541 26.2326 29.1026C26.1836 29.1512 26.2326 29.1026 26.1836 29.1997ZM33.1942 28.5687C32.9981 26.3358 30.9391 24.2972 28.6839 24.103C28.6349 25.6078 28.782 26.4815 29.7625 27.5008C30.0566 27.8406 30.5469 28.1804 31.0861 28.3745C31.8215 28.6172 32.3608 28.5687 33.1942 28.5687ZM22.997 28.5687C24.3207 28.5687 25.4482 28.5687 26.4287 27.5008C27.2622 26.7242 27.5563 25.7048 27.5073 24.1516C25.2521 24.2486 23.1441 26.3358 22.997 28.5687ZM27.5073 34.1993C27.5563 32.7916 27.3602 31.9179 26.6739 31.0442C26.1836 30.4617 25.2031 29.7336 23.9775 29.7336H22.997C23.1441 31.9665 25.3012 34.0051 27.5073 34.1993ZM28.6839 34.1993C30.9881 34.0051 32.9491 32.015 33.1942 29.7336C32.4098 29.7336 31.8215 29.6851 31.1352 29.9278C30.1056 30.2676 29.2232 31.0928 28.88 32.1121C28.6839 32.7431 28.6349 33.4712 28.6839 34.1993ZM23.095 21.7246C22.3106 21.9673 22.6538 23.2293 23.5363 22.9381C24.3207 22.6954 23.9775 21.4333 23.095 21.7246ZM20.0064 26.8698C19.0259 27.161 19.4672 28.326 20.2516 28.1804C21.183 27.9862 20.7418 26.6756 20.0064 26.8698ZM31.9686 19.3947C31.0371 19.8315 31.6744 20.8994 32.4098 20.6567C32.6549 20.5596 32.9491 20.2198 32.802 19.783C32.704 19.5403 32.3118 19.249 31.9686 19.3947ZM34.616 18.9578C33.6845 19.2976 34.2728 20.4625 35.0082 20.2198C35.3023 20.1228 35.5965 19.783 35.4494 19.3461C35.3513 19.1034 35.0082 18.8122 34.616 18.9578ZM29.0761 20.2684C28.1936 20.5596 28.6839 21.7731 29.4683 21.5304C29.7625 21.4333 30.0566 21.0935 29.9095 20.7052C29.8115 20.414 29.5173 20.1228 29.0761 20.2684ZM37.0672 24.8311C36.724 24.9282 36.4789 25.1709 36.577 25.6078C36.626 25.9475 36.9692 26.1902 37.4104 26.0931C38.1948 25.8505 37.9006 24.5884 37.0672 24.8311ZM35.8416 29.2968C34.9101 29.588 35.4004 30.8015 36.1848 30.6074C36.4789 30.5103 36.7731 30.1705 36.675 29.7822C36.577 29.4909 36.2338 29.1997 35.8416 29.2968ZM39.1753 26.3844C38.3419 26.6756 38.7831 27.8891 39.6165 27.5979C40.4009 27.3066 40.0577 26.0446 39.1753 26.3844ZM34.4198 23.3749C33.5374 23.5691 33.7825 24.8797 34.714 24.6855C35.4984 24.4913 35.3023 23.2293 34.4198 23.3749ZM18.7318 31.384C17.8984 31.6267 18.2415 32.9373 19.173 32.646C19.9084 32.4033 19.6142 31.1413 18.7318 31.384ZM21.4282 32.7916C21.2321 32.8887 21.085 32.9373 20.9869 33.0829C20.7418 33.5683 21.134 34.2478 21.8204 34.0537C22.5557 33.811 22.2616 32.5489 21.4282 32.7916ZM37.1653 34.7818C36.2338 35.1216 36.724 36.238 37.5084 36.0438C38.4399 35.8011 37.9497 34.4905 37.1653 34.7818ZM36.724 32.1606C35.7926 32.4519 36.2828 33.7139 37.1162 33.4227C37.3614 33.3256 37.6555 32.9858 37.5084 32.5975C37.4104 32.3062 37.1162 32.0635 36.724 32.1606ZM26.6739 35.9467C25.6934 36.2865 26.3307 37.4515 27.0661 37.2088C27.3602 37.1117 27.6053 36.7719 27.4583 36.3836C27.3602 36.1409 27.017 35.8011 26.6739 35.9467ZM23.7814 36.8204C22.8499 37.0631 23.3892 38.3252 24.1246 38.0825C25.007 37.7912 24.5658 36.5777 23.7814 36.8204ZM21.183 37.2573C20.8889 37.3058 20.5947 37.6456 20.6438 38.0339C20.7908 38.8591 22.1145 38.665 21.9674 37.7912C21.9184 37.4515 21.5752 37.1602 21.183 37.2573ZM29.7134 39.296C28.831 39.4416 29.0761 40.7522 29.9586 40.558C30.792 40.4124 30.5959 39.1018 29.7134 39.296ZM31.2822 37.1117C30.3998 37.3058 30.6449 38.6164 31.5274 38.4223C32.3608 38.2281 32.1647 36.9661 31.2822 37.1117ZM32.6059 34.5391C31.7725 34.7818 32.1157 35.9953 33.0471 35.7526C33.8315 35.5584 33.5374 34.2478 32.6059 34.5391Z" fill="#767676"/>
<path fill-rule="evenodd" clip-rule="evenodd" d="M13.7312 29.7336C14.4666 29.685 17.0159 29.8307 17.4081 29.685C17.8983 29.4909 17.8003 28.8113 17.8003 28.2774C18.0944 23.5205 22.3106 19.3461 27.1151 19.0063C29.0761 18.8607 28.6348 19.2975 28.6839 15.026C37.9496 15.2687 44.0778 23.9088 41.9697 32.6945C40.695 37.9853 36.5769 41.82 31.2332 42.9364C26.0365 44.0043 21.3301 42.6452 17.6532 38.9076C15.5941 36.7718 13.7312 33.1799 13.7312 29.7336ZM28.6839 13.8611C28.5368 13.5698 28.8309 11.6768 28.6348 11.2399C28.4387 10.8516 28.0956 10.9001 27.6053 10.9001C25.056 10.9487 22.1635 11.6768 19.9084 12.7932C18.5847 13.4242 18.9279 13.1815 18.4866 14.1523C17.4081 16.6278 15.5941 18.5694 13.0448 19.6373C11.9663 20.0742 12.2114 19.7829 11.5741 20.9479C11.0348 22.0157 8.58353 28.9084 9.90722 29.6365C10.2504 29.8307 12.0153 29.685 12.5546 29.7336C12.5056 32.5003 13.8783 36.0438 15.4961 38.131C19.4671 43.2762 25.105 45.3634 31.5764 44.0528C37.4104 42.8393 41.6755 38.6164 43.0973 32.8401C45.4505 23.4719 38.5379 14.0067 28.6839 13.8611ZM10.7897 28.5686H16.6237C17.6532 22.307 20.8889 18.4238 27.5073 17.8413V12.0651C24.8599 12.0651 22.1635 12.9388 20.1045 14.0067C19.6632 14.2008 19.7613 14.1038 19.6142 14.5406C18.4866 17.3074 16.1824 19.6373 13.388 20.7537C12.7997 20.9964 12.8978 20.8508 12.4075 21.8701C11.5741 23.6661 10.7406 26.4814 10.7897 28.5686Z" fill="#767676"/>
<path fill-rule="evenodd" clip-rule="evenodd" d="M36.0865 12.9389C35.8414 12.9875 35.5472 13.1816 35.5962 13.5214C35.6452 13.8612 35.8414 13.9583 36.1355 14.1039C36.6258 14.3466 37.165 14.6863 37.5572 14.9776C40.0085 16.5794 41.4793 18.1812 42.95 20.5111C43.2932 21.0936 43.4403 21.7246 43.9795 21.579C44.2247 21.5305 44.4698 21.3363 44.4698 20.9965C44.4698 20.6567 43.4893 19.2491 43.3422 18.9579C42.2637 17.3075 40.6458 15.7542 39.028 14.5407C38.6358 14.2495 36.5277 12.7933 36.0865 12.9389Z" fill="#767676"/>
<path fill-rule="evenodd" clip-rule="evenodd" d="M12.6036 37.6943C12.3585 37.7913 12.2114 37.937 12.2114 38.1797C12.2114 38.4224 12.3585 38.6165 12.4566 38.8107C13.7802 40.9464 15.5451 42.6453 17.5552 44.053L18.2906 44.5384C18.4867 44.6354 18.6828 44.8296 18.9769 44.684C19.2711 44.5384 19.6142 44.0044 19.0259 43.6161C16.7708 42.257 15.0549 40.6066 13.5841 38.3738C13.339 38.034 13.1429 37.4516 12.6036 37.6943Z" fill="#767676"/>
<path fill-rule="evenodd" clip-rule="evenodd" d="M14.5154 22.4041C13.9761 22.5012 13.6329 22.7439 13.3878 23.0837C12.3093 24.4914 13.731 26.1417 15.1037 25.8019C15.9371 25.6563 16.7215 24.8311 16.5254 23.8118C16.3784 22.9866 15.4959 22.21 14.5154 22.4041ZM14.6625 23.5691C13.8781 23.7633 14.2703 24.8797 14.9566 24.637C15.2018 24.5884 15.4469 24.2972 15.3488 23.9574C15.2998 23.7147 15.0057 23.472 14.6625 23.5691Z" fill="#767676"/>
<path fill-rule="evenodd" clip-rule="evenodd" d="M22.7029 14.3466C20.3497 14.832 21.036 18.0357 23.3402 17.7444C24.1246 17.6474 24.909 16.6766 24.7129 15.7058C24.5658 14.8806 23.6834 14.104 22.7029 14.3466ZM22.7519 15.5116C22.0165 15.8514 22.5558 16.8222 23.1931 16.5795C23.9285 16.2397 23.4382 15.2204 22.7519 15.5116Z" fill="#767676"/>
<path fill-rule="evenodd" clip-rule="evenodd" d="M37.0183 10.9488C36.7241 11.0459 36.479 11.2401 36.479 11.6769C36.528 12.0167 36.7732 12.1138 37.0673 12.3079C37.6556 12.5992 38.2439 12.9389 38.7342 13.2302C41.4306 15.0262 43.0974 16.8707 44.7152 19.4918C45.1565 20.1714 45.3035 20.8024 45.9409 20.7053C46.186 20.6568 46.4801 20.4141 46.4801 20.0258C46.4311 19.686 45.3526 18.0842 45.1565 17.7444C43.9308 15.8999 42.1659 14.1524 40.303 12.7448C39.9108 12.4535 37.5576 10.8517 37.0183 10.9488Z" fill="#767676"/>
<path fill-rule="evenodd" clip-rule="evenodd" d="M10.6424 38.7621C10.3973 38.9077 10.2502 39.0534 10.2012 39.2961C10.2012 39.5873 10.3973 39.83 10.5443 40.0242C12.0151 42.4026 13.9761 44.3442 16.1822 45.946L17.0647 46.4799C17.2608 46.6256 17.4569 46.7712 17.8491 46.6256C18.1923 46.4799 18.5355 45.8489 17.8491 45.4606C15.3488 43.9073 13.4368 42.0143 11.77 39.5873C11.5249 39.1504 11.2797 38.5194 10.6424 38.7621Z" fill="#767676"/>
</svg>
