<svg width="57" height="57" viewBox="0 0 57 57" fill="none" xmlns="http://www.w3.org/2000/svg">
<path d="M31.4844 25.6017C31.2199 25.3406 31.0745 24.9933 31.0745 24.6242C31.0745 24.255 31.2199 23.9078 31.4844 23.6466C31.7489 23.3855 32.1007 23.242 32.4746 23.242C32.8486 23.242 33.2004 23.3855 33.4649 23.6466C34.0106 24.1853 34.0106 25.0617 33.4649 25.6017C33.2004 25.8628 32.8486 26.0064 32.4746 26.0064C32.1007 26.0064 31.7489 25.8628 31.4844 25.6017ZM23.9475 23.1504L29.6617 17.5094L39.812 27.5296L34.0977 33.1705L32.7419 31.832C32.5895 31.6817 32.5452 31.4478 32.6325 31.2537L33.0327 30.3623C33.2252 29.933 33.1297 29.4203 32.7917 29.0895L31.7323 28.0436L31.7226 28.0285C31.7101 28.0108 31.6976 27.9944 31.6824 27.9807L29.2061 25.5361C29.1923 25.5225 29.1756 25.5088 29.1576 25.4979L29.1424 25.4883L28.0829 24.4424C27.8683 24.2305 27.5677 24.1088 27.2589 24.1088C27.0968 24.1088 26.939 24.1416 26.7922 24.2059L25.8892 24.601C25.8213 24.6311 25.7507 24.6461 25.6759 24.6461C25.536 24.6461 25.4003 24.59 25.3019 24.4943L23.9461 23.1559L23.9475 23.1504ZM30.4413 24.6242C30.4413 25.1601 30.6532 25.6646 31.0368 26.0433C31.4205 26.422 31.9315 26.6312 32.4744 26.6312C33.0173 26.6312 33.5284 26.422 33.912 26.0433C34.2956 25.6646 34.5075 25.1601 34.5075 24.6242C34.5075 24.0882 34.2956 23.5837 33.912 23.205C33.5284 22.8263 33.0173 22.6171 32.4744 22.6171C31.9315 22.6171 31.4205 22.8263 31.0368 23.205C30.6532 23.5837 30.4413 24.0882 30.4413 24.6242ZM20.6165 31.5367L20.7481 31.441C22.8892 29.8851 25.7199 27.7975 28.3194 25.8574L28.4939 25.7275L27.6366 24.8812C27.5383 24.7842 27.4025 24.7295 27.2627 24.7295C27.1893 24.7295 27.1172 24.7445 27.0508 24.7732L26.1464 25.1684C26.0785 25.1984 26.0037 25.2217 25.9262 25.2381L25.8265 25.2586L25.7891 25.3529C25.6866 25.6141 25.5329 25.8465 25.3334 26.0434C24.9498 26.4221 24.4388 26.6313 23.8958 26.6313C23.3529 26.6313 22.8419 26.4221 22.4583 26.0434C22.0746 25.6647 21.8641 25.1615 21.8641 24.6242C21.8641 24.0869 22.076 23.5838 22.4583 23.2051C22.7463 22.9207 23.1092 22.7307 23.5094 22.6541L23.5662 22.6432L27.7378 18.5251L26.7088 17.5093L16.5585 27.5294L20.6177 31.5366L20.6165 31.5367ZM23.2797 23.3747L23.1509 23.4553C23.0609 23.5114 22.9778 23.577 22.9058 23.6481C22.3601 24.1868 22.3601 25.0632 22.9058 25.6032C23.1703 25.8643 23.5221 26.0079 23.8961 26.0079C24.27 26.0079 24.6218 25.8643 24.8863 25.6032C24.968 25.5225 25.04 25.4309 25.0996 25.3311L25.1924 25.1766L25.04 25.0782C24.9722 25.0344 24.9098 24.9852 24.8572 24.9319L23.2797 23.3747ZM43.2768 36.5571C43.335 36.6145 43.3668 36.6897 43.3668 36.7717C43.3668 36.8524 43.335 36.929 43.2768 36.9864L42.7658 37.4909C42.6785 37.577 42.6494 37.7069 42.6938 37.8217C43.2851 39.368 42.9029 41.1221 41.7201 42.2898C40.9266 43.0732 39.8269 43.5216 38.6996 43.5216C38.183 43.5216 37.6761 43.43 37.1942 43.2509C37.1581 43.2373 37.1208 43.2304 37.082 43.2304C36.9975 43.2304 36.9172 43.2633 36.8576 43.322L36.348 43.8252C36.2898 43.8826 36.2122 43.914 36.1305 43.914C36.0488 43.914 35.9713 43.8826 35.9131 43.8252L34.1307 42.0656C34.0725 42.0082 34.0407 41.9316 34.0407 41.851C34.0407 41.7703 34.0725 41.6937 34.1307 41.6363L34.6403 41.1332C34.7276 41.0471 34.7567 40.9172 34.7124 40.8023C34.6473 40.6342 34.452 40.1215 28.6642 32.5623L28.5783 32.4488L28.6655 32.3353C29.5547 31.1746 30.484 29.9701 31.3509 28.8504L31.4825 28.6808L32.3426 29.5299C32.4963 29.6803 32.5392 29.9141 32.452 30.1082L32.0517 30.9996C31.8592 31.4289 31.9562 31.9416 32.2927 32.2738L33.8729 33.8338C33.9325 33.8925 34.0128 33.9254 34.0973 33.9254C34.1818 33.9254 34.2607 33.8925 34.3216 33.8338L35.816 32.3586L35.9475 32.4543C39.7369 35.1955 40.0844 35.324 40.2159 35.3732C40.2519 35.3869 40.2893 35.3937 40.3281 35.3937C40.4126 35.3937 40.4915 35.3609 40.5525 35.3021L41.0621 34.799C41.1203 34.7416 41.1978 34.7101 41.2796 34.7101C41.3613 34.7101 41.4388 34.7416 41.497 34.799L43.2794 36.5585L43.2768 36.5571ZM39.8131 40.4057C40.1081 40.1145 40.2715 39.7248 40.2715 39.3119C40.2715 38.899 40.1081 38.5094 39.8131 38.2182C39.5181 37.927 39.1234 37.7656 38.7051 37.7656C38.2869 37.7656 37.8922 37.927 37.5972 38.2182C36.9864 38.8211 36.9864 39.8027 37.5972 40.4057C37.8922 40.6969 38.2869 40.8582 38.7051 40.8582C39.1248 40.8582 39.5181 40.6969 39.8131 40.4057ZM41.0387 26.3196L30.8885 16.2994L30.1101 17.0678L40.2604 27.0879L41.0387 26.3196ZM43.0012 24.3823C43.2367 24.1498 43.3668 23.8395 43.3668 23.51C43.3668 23.1805 43.2366 22.8715 43.0012 22.6377L34.6169 14.3609C34.3815 14.1285 34.0671 14 33.7333 14C33.3996 14 33.0866 14.1285 32.8497 14.3609L32.5617 14.6453L42.712 24.6654L43 24.3811L43.0012 24.3823ZM42.2658 25.1082L32.1156 15.0881L31.3372 15.8564L41.4875 25.8766L42.2658 25.1082ZM22.2368 41.6363C22.295 41.6937 22.3269 41.7703 22.3269 41.8509C22.3269 41.9316 22.295 42.0082 22.2368 42.0656L20.4544 43.8251C20.3963 43.8826 20.3187 43.914 20.237 43.914C20.1553 43.914 20.0777 43.8826 20.0196 43.8251L19.5085 43.3206C19.449 43.2619 19.3687 43.229 19.2842 43.229C19.2454 43.229 19.208 43.2359 19.172 43.2495C18.6886 43.43 18.1831 43.5203 17.6666 43.5203C16.5406 43.5203 15.4396 43.0718 14.646 42.2884C13.4633 41.1209 13.081 39.3667 13.6724 37.8203C13.7167 37.7055 13.6876 37.5756 13.6004 37.4895L13.0893 36.985C12.9702 36.8674 12.9702 36.6746 13.0893 36.557L14.8717 34.7975C14.9299 34.7401 15.0075 34.7086 15.0892 34.7086C15.1709 34.7086 15.2484 34.7401 15.3066 34.7975L15.8163 35.3006C15.8758 35.3594 15.9561 35.3922 16.0406 35.3922C16.0794 35.3922 16.1168 35.3854 16.1528 35.3717C16.8467 35.1133 23.1469 30.5018 28.8126 26.2717L28.9441 26.1733L31.0312 28.2336L30.9301 28.3635C26.616 33.9292 21.9126 40.1186 21.6524 40.7993C21.6095 40.9142 21.6372 41.0441 21.7244 41.1302L22.2368 41.6363ZM18.7731 40.4058C19.3839 39.8029 19.3839 38.8213 18.7731 38.2183C18.4767 37.9271 18.0834 37.7658 17.6652 37.7658C17.2455 37.7658 16.8522 37.9271 16.5572 38.2183C16.2622 38.5095 16.0988 38.8992 16.0988 39.3121C16.0988 39.725 16.2622 40.1146 16.5572 40.4058C16.8522 40.697 17.2469 40.8584 17.6652 40.8584C18.0834 40.8584 18.4781 40.697 18.7731 40.4058ZM16.1113 27.088L26.2615 17.0678L25.4832 16.2995L15.3329 26.3196L16.1113 27.088ZM14.8842 25.878L25.0345 15.8579L24.2562 15.0895L14.1059 25.1097L14.8842 25.878ZM13.6572 24.6667L23.8075 14.6466L23.5194 14.3622C23.2839 14.1298 22.9696 14.0013 22.6358 14.0013C22.302 14.0013 21.989 14.1298 21.7522 14.3622L13.369 22.639C13.1335 22.8714 13.0034 23.1818 13.0034 23.5112C13.0034 23.8407 13.1335 24.1497 13.369 24.3835L13.657 24.6679L13.6572 24.6667Z" fill="#767676"/>
</svg>
