<svg width="57" height="57" viewBox="0 0 57 57" fill="none" xmlns="http://www.w3.org/2000/svg">
<path d="M47.8941 34.5147H44.85C44.85 22.4761 38.1084 18.4094 34.2144 17.0649V14.5649C34.2144 13.1487 33.0662 12 31.6495 12H24.2393C22.8231 12 21.6744 13.1487 21.6744 14.5649V17.2C17.7385 18.6736 11.4146 22.8544 11.4146 34.5147H8.56495C7.14824 34.5147 6 35.6633 6 37.0796V42.4947C6 43.9105 7.14824 45.0596 8.56495 45.0596H15.9751C17.3914 45.0596 18.54 43.9105 18.54 42.4947V37.0796C18.54 35.6633 17.3909 34.5147 15.9751 34.5147H13.1246C13.1246 24.3096 18.1895 20.4434 21.6744 18.9886V19.98C21.6744 21.3963 22.8235 22.5449 24.2393 22.5449H27.0899V34.5147H24.2393C22.8231 34.5147 21.6744 35.6633 21.6744 37.0796V42.4947C21.6744 43.9105 22.8235 45.0596 24.2393 45.0596H31.6495C33.0662 45.0596 34.2144 43.9105 34.2144 42.4947V37.0796C34.2144 35.6633 33.0662 34.5147 31.6495 34.5147H28.7998V22.5449H31.6495C33.0662 22.5449 34.2144 21.3963 34.2144 19.98V18.8373C37.6976 20.1672 43.14 23.9364 43.14 34.5147H40.484C39.0682 34.5147 37.9191 35.6633 37.9191 37.0796V42.4947C37.9191 43.9105 39.0682 45.0596 40.484 45.0596H47.8941C49.3108 45.0596 50.4591 43.9105 50.4591 42.4947V37.0796C50.4591 35.6633 49.3108 34.5147 47.8941 34.5147Z" fill="#767676"/>
</svg>
