<svg width="57" height="57" viewBox="0 0 57 57" fill="none" xmlns="http://www.w3.org/2000/svg">
<path fill-rule="evenodd" clip-rule="evenodd" d="M30.6436 13.1156C29.1764 13.3943 27.8139 13.9656 26.6216 14.7662L24.8997 13.0598C24.6232 12.7858 24.1732 12.7858 23.8966 13.0598L21.9904 14.9489C21.7138 15.223 21.7138 15.6689 21.9904 15.943L23.7122 17.6493C22.9044 18.8308 22.3279 20.181 22.0466 21.6351H19.6122C19.2216 21.6351 18.9029 21.951 18.9029 22.3381V22.767L20.7982 22.2188L26.5202 23.8741C26.4077 20.4072 29.2093 17.5456 32.7014 17.5456C36.117 17.5456 38.8858 20.2895 38.8858 23.6743C38.8858 26.7867 36.5452 29.3555 33.5138 29.7503C33.4669 32.1488 33.3138 35.0553 32.6341 37.3484H34.0498C34.4404 37.3484 34.7591 37.0325 34.7591 36.6454V34.233C36.2263 33.9543 37.5888 33.3829 38.7811 32.5824L40.503 34.2888C40.7796 34.5628 41.2296 34.5628 41.5061 34.2888L43.4124 32.3997C43.6889 32.1256 43.6889 31.6797 43.4124 31.4056L41.6905 29.6992C42.4983 28.5178 43.0748 27.1676 43.3561 25.7135H45.7905C46.1811 25.7135 46.4998 25.3976 46.4998 25.0105V22.3379C46.4998 21.9508 46.1811 21.6349 45.7905 21.6349H43.3561C43.0749 20.181 42.4983 18.8308 41.6905 17.6492L43.4124 15.9428C43.6889 15.6687 43.6889 15.2228 43.4124 14.9487L41.5061 13.0597C41.2296 12.7856 40.7796 12.7856 40.503 13.0597L38.7811 14.766C37.5889 13.9655 36.2264 13.3941 34.7591 13.1154V10.703C34.7591 10.3159 34.4404 10 34.0498 10H31.3529C30.9623 10 30.6435 10.3159 30.6435 10.703L30.6436 13.1156ZM20.7984 45.0163C18.9953 43.9804 17.1437 42.8857 15.5092 41.6563C12.6436 39.5009 11.6233 37.6645 11.178 34.1311C10.9264 32.1383 10.8843 30.0371 10.8764 27.9933L20.7984 25.1225L30.722 27.9948C30.7142 30.0387 30.672 32.1399 30.4205 34.1326C29.9752 37.6661 28.9548 39.5026 26.0893 41.6578C24.4534 42.8873 22.6018 43.982 20.7985 45.0179L20.7984 45.0163ZM23.7703 31.5884C23.9531 31.4073 24.25 31.4073 24.4328 31.5884C24.6156 31.7696 24.6156 32.0638 24.4328 32.2449L20.028 36.6101C19.8451 36.7912 19.5483 36.7912 19.3655 36.6101L17.1624 34.4268C16.9795 34.2456 16.9795 33.9514 17.1624 33.7703C17.3452 33.5891 17.642 33.5891 17.8248 33.7703L19.6952 35.6237L23.7688 31.5868L23.7703 31.5884ZM20.7984 47.1624C9.942 40.9517 9 39.4513 9 26.601L20.7984 23.1867L32.5984 26.601C32.5984 39.4513 31.6562 40.9517 20.7984 47.1624ZM20.3281 45.82C18.4874 44.7624 16.639 43.6723 14.9421 42.3964C11.8733 40.0877 10.7249 38.0281 10.2469 34.2457C9.95313 31.9169 9.94376 29.6328 9.93594 27.2965L20.7983 24.1532L31.6623 27.2965C31.6545 29.633 31.6452 31.9169 31.3514 34.2457C30.8748 38.0285 29.7248 40.0878 26.6562 42.3964C24.8015 43.7915 22.8078 44.9358 20.7982 46.0909L20.3279 45.8215L20.3281 45.82Z" fill="#767676"/>
</svg>
