<svg width="57" height="57" viewBox="0 0 57 57" fill="none" xmlns="http://www.w3.org/2000/svg">
<path fill-rule="evenodd" clip-rule="evenodd" d="M28.7273 12C19.4896 12 12 19.4755 12 28.6957C12 37.9158 19.4896 45.3913 28.7273 45.3913C37.9649 45.3913 45.4545 37.9158 45.4545 28.6957C45.4545 19.4755 37.9649 12 28.7273 12ZM18.1092 27.4844C18.0635 27.8822 18.0406 28.2866 18.0406 28.6958C18.0406 29.1963 18.0749 29.6871 18.1419 30.1697L24.6613 29.6267C25.0942 29.5909 25.4944 29.8582 25.6251 30.2708C25.7084 30.5333 25.8228 30.7795 25.9665 31.0093C26.1626 31.3224 26.1528 31.7251 25.942 32.0284L22.3222 37.2345C23.0311 37.766 23.8103 38.2111 24.6418 38.5551L27.2538 33.023C27.4302 32.6513 27.8288 32.4394 28.2339 32.5013C28.394 32.5258 28.559 32.5388 28.7273 32.5388C28.8955 32.5388 29.0605 32.5258 29.2206 32.5013C29.6257 32.4393 30.0243 32.6513 30.2007 33.023L32.8127 38.5551C33.6442 38.2111 34.4234 37.766 35.1323 37.2345L31.5125 32.0284C31.3017 31.7251 31.2919 31.3224 31.488 31.0093C31.6317 30.7794 31.7461 30.5333 31.8294 30.2708C31.9601 29.8583 32.3603 29.5909 32.7932 29.6267L39.3126 30.1697C39.3796 29.6871 39.4139 29.1963 39.4139 28.6958C39.4139 28.2865 39.391 27.8822 39.3453 27.4844L32.388 28.0632C32.0352 28.0925 31.697 27.9197 31.5141 27.6181C31.4308 27.4779 31.336 27.3458 31.2315 27.2202C30.9652 26.9007 30.9456 26.4425 31.1841 26.1001L35.2532 20.2483C34.541 19.6989 33.7569 19.2374 32.9173 18.8804L29.7809 25.5178C29.6209 25.8585 29.2713 26.0688 28.8939 26.0493C28.8384 26.046 28.7829 26.0444 28.7273 26.0444C28.6718 26.0444 28.6162 26.046 28.5607 26.0493C28.1833 26.0688 27.8338 25.8585 27.6737 25.5178L24.5373 18.8804C23.6977 19.2375 22.9136 19.6989 22.2014 20.2483L26.2705 26.1001C26.509 26.4425 26.4894 26.9007 26.2231 27.2202C26.1186 27.3458 26.0239 27.4779 25.9405 27.6181C25.7576 27.9197 25.4195 28.0925 25.0666 28.0632L18.1092 27.4844ZM18.4817 25.6534L24.0176 26.1148L20.8224 21.5185C19.7541 22.6876 18.944 24.0964 18.4817 25.6534ZM26.3192 18.3019L28.727 23.4003L31.1348 18.3019C30.3605 18.1226 29.5552 18.0296 28.727 18.0296C27.8988 18.0296 27.0935 18.1226 26.3192 18.3019ZM36.6316 21.5187L33.4364 26.115L38.9723 25.6536C38.51 24.0965 37.6999 22.6877 36.6316 21.5187ZM38.8924 31.9961L33.4363 31.5428L36.527 35.9872C37.5871 34.859 38.4023 33.501 38.8924 31.9961ZM31.0222 39.1164L28.7924 34.3932H28.7271H28.6618L26.432 39.1164C27.172 39.2778 27.9398 39.3626 28.7271 39.3626C29.5145 39.3626 30.2838 39.2778 31.0222 39.1164ZM20.9269 35.9876L24.0175 31.5432L18.5614 31.9964C19.0515 33.5013 19.8667 34.8593 20.9269 35.9876ZM16.1813 28.6962C16.1813 21.78 21.7975 16.1744 28.7268 16.1744C35.6561 16.1744 41.2722 21.78 41.2722 28.6962C41.2722 35.6123 35.6561 41.2179 28.7268 41.2179C21.7975 41.2179 16.1813 35.6123 16.1813 28.6962ZM28.7268 28.2331C28.2138 28.2331 27.7973 28.6472 27.7973 29.1592C27.7973 29.6728 28.2138 30.0869 28.7268 30.0869C29.2397 30.0869 29.6563 29.6728 29.6563 29.1592C29.6563 28.6472 29.2397 28.2331 28.7268 28.2331ZM25.9383 29.1592C25.9383 27.6233 27.1864 26.3777 28.7268 26.3777C30.2672 26.3777 31.5152 27.6233 31.5152 29.1592C31.5152 30.6967 30.2672 31.9424 28.7268 31.9424C27.1864 31.9424 25.9383 30.6967 25.9383 29.1592Z" fill="#767676"/>
</svg>
