<svg width="57" height="57" viewBox="0 0 57 57" fill="none" xmlns="http://www.w3.org/2000/svg">
<path d="M29.6355 36.2557V30.7084C29.6355 30.4213 29.8684 30.1869 30.1538 30.1869H38.9535C40.9511 30.1869 42.5774 28.5521 42.5774 26.5409V21.0258C44.0945 20.4061 45.1661 18.9105 45.1661 17.1659C45.1661 14.869 43.3083 13 41.0255 13C38.7427 13 36.8849 14.8692 36.8849 17.1659C36.8849 18.9105 37.9565 20.4061 39.4736 21.0258V26.5409C39.4736 26.828 39.2406 27.0623 38.9553 27.0623H30.1555C29.8702 27.0623 29.6372 26.828 29.6372 26.5409V21.0258C31.1543 20.4061 32.2259 18.9105 32.2259 17.1659C32.2259 14.869 30.3681 13 28.0853 13C25.8025 13 23.9447 14.8692 23.9447 17.1659C23.9447 18.9105 25.0163 20.4061 26.5334 21.0258V26.5409C26.5334 26.828 26.3004 27.0623 26.0151 27.0623H17.2109C16.9255 27.0623 16.6926 26.828 16.6926 26.5409V21.0258C18.2097 20.4061 19.2813 18.9105 19.2813 17.1659C19.2813 14.869 17.4234 13 15.1406 13C12.8578 13 11 14.8706 11 17.1674C11 18.912 12.0716 20.4076 13.5887 21.0273V36.2556C12.0716 36.8752 11 38.3708 11 40.1155C11 42.4124 12.8578 44.2814 15.1406 44.2814C17.4234 44.2814 19.2813 42.4122 19.2813 40.1155C19.2813 38.3709 18.2097 36.8753 16.6926 36.2556V30.7083C16.6926 30.4211 16.9255 30.1868 17.2109 30.1868H26.0106C26.296 30.1868 26.5289 30.4212 26.5289 30.7083V36.2556C25.0118 36.8752 23.9402 38.3708 23.9402 40.1155C23.9402 42.4124 25.798 44.2814 28.0808 44.2814C30.3636 44.2814 32.2215 42.4122 32.2215 40.1155C32.2215 38.3709 31.1499 36.8753 29.6327 36.2556L29.6355 36.2557ZM37.9186 17.1675C37.9186 15.4433 39.3105 14.043 41.0241 14.043C42.7378 14.043 44.1297 15.4434 44.1297 17.1675C44.1297 18.8916 42.7378 20.292 41.0241 20.292C39.3105 20.292 37.9186 18.8916 37.9186 17.1675ZM24.9764 17.1675C24.9764 15.4433 26.3683 14.043 28.0819 14.043C29.7956 14.043 31.1875 15.4434 31.1875 17.1675C31.1875 18.8916 29.7956 20.292 28.0819 20.292C26.3683 20.292 24.9764 18.8916 24.9764 17.1675ZM12.0342 17.1675C12.0342 15.4433 13.4261 14.043 15.1397 14.043C16.8534 14.043 18.2453 15.4434 18.2453 17.1675C18.2453 18.8916 16.8534 20.292 15.1397 20.292C13.4261 20.292 12.0342 18.8916 12.0342 17.1675ZM18.2453 40.1156C18.2453 41.8397 16.8534 43.2401 15.1397 43.2401C13.4261 43.2401 12.0342 41.8397 12.0342 40.1156C12.0342 38.3915 13.4261 36.9911 15.1397 36.9911C16.8534 36.9911 18.2453 38.3915 18.2453 40.1156ZM28.0819 43.2401C26.3683 43.2401 24.9764 41.8397 24.9764 40.1156C24.9764 38.3915 26.3683 36.9911 28.0819 36.9911C29.7956 36.9911 31.1875 38.3915 31.1875 40.1156C31.1875 41.8397 29.7956 43.2401 28.0819 43.2401Z" fill="#767676"/>
<path d="M42.5776 36.2556V32.7927C42.5776 31.9329 41.8787 31.2297 41.0241 31.2297C40.1694 31.2297 39.4705 31.9329 39.4705 32.7927V36.2556C37.9534 36.8752 36.8818 38.3709 36.8818 40.1155C36.8818 42.4124 38.7397 44.2814 41.0225 44.2814C43.3053 44.2814 45.1631 42.4122 45.1631 40.1155C45.1631 38.3709 44.0915 36.8753 42.5744 36.2556H42.5776ZM41.0241 43.24C39.3104 43.24 37.9185 41.8396 37.9185 40.1155C37.9185 38.3914 39.3104 36.991 41.0241 36.991C42.7377 36.991 44.1296 38.3914 44.1296 40.1155C44.1296 41.8396 42.7377 43.24 41.0241 43.24Z" fill="#767676"/>
</svg>
